<?xml version="1.0" encoding="utf-8"?>
<!-- Generator: Adobe Illustrator 21.1.0, SVG Export Plug-In . SVG Version: 6.00 Build 0)  -->
<svg version="1.0" id="Layer_1" xmlns="http://www.w3.org/2000/svg" xmlns:xlink="http://www.w3.org/1999/xlink" x="0px" y="0px"
	 viewBox="0 0 612 792" enable-background="new 0 0 612 792" xml:space="preserve">
<g>
	<path fill="#45A6FA" d="M290.7,403.3c-1.9-3.1-5-3.1-7.5-3.8c-38.3-13.2-63.3-38.9-74.6-77.8c-2.5-8.8-2.5-18.8-1.9-28.2
		c0.6-5.6,2.5-10,8.2-13.2c15.7-8.2,32.6-13.2,50.2-15.7c65.2-7.5,123.5,35.7,139.8,92.2c23.2,79-27,154.9-101,168.7
		c-35.7,6.9-68.3,0-98.4-19.4c-3.8-2.5-4.4-5-3.8-9.4C214.2,449.7,243.1,417.7,290.7,403.3z"/>
</g>
</svg>
