<?xml version="1.0" encoding="utf-8"?>
<!-- Generator: Adobe Illustrator 21.1.0, SVG Export Plug-In . SVG Version: 6.00 Build 0)  -->
<svg version="1.0" id="Layer_1" xmlns="http://www.w3.org/2000/svg" xmlns:xlink="http://www.w3.org/1999/xlink" x="0px" y="0px"
	 viewBox="0 0 612 792" enable-background="new 0 0 612 792" xml:space="preserve">
<g>
	<path fill="#3762FE" d="M377.2,557.9c-23.5,12.7-48.9,17.4-75.7,15.4c-14.7-1.3-29.5-4.7-42.9-10.7c2-2,5.4-1.3,7.4-1.3
		c9.4-0.7,16.1-4.7,21.4-14.1c-16.8,4.7-27.5,0-31.5-12.1c-3.4-11.4,2.7-20.8,18.1-26.8c-3.4-2-4-6.7-10.1-5.4
		c-12.1,2.7-20.8-3.4-24.1-14.1c-3.4-11.4,2-20.1,13.4-25.5c7.4-3.4,14.1-8.7,20.1-16.8c-4.7,0-8,0.7-11.4,0.7
		c-9.4,0-16.1-4.7-18.8-12.1c-3.4-9.4-0.7-17.4,6.7-23.5c3.4-2.7,6.7-2.7,10.1-3.4c2-0.7,6,0,5.4-3.4c-0.7-2-1.3-6-5.4-6
		c-0.7,0-1.3,0-2.7,0c-11.4-1.3-18.8-10.1-18.1-21.4c0-11.4,6.7-16.8,20.1-20.1c8-2,16.1-3.4,22.8-10.1
		c-18.1-2.7-24.8-6.7-25.5-17.4c-0.7-14.7,4-19.4,23.5-24.8c-2-4-6.7-3.4-8.7-6c40.2-12.1,79.1-7.4,115.2,14.1
		c1.3,0.7,2.7,2,3.4,2.7c-2,0-4-0.7-6-1.3c-9.4-4-19.4-4-29.5-0.7c-30.2,10.1-40.2,48.9-18.8,72.4c2.7,3.4,8,4,10.1,8.7
		c-0.7,0.7-1.3,0.7-2,0.7c-19.4,3.4-32.2,16.8-35.5,38.9c-2.7,15.4,7.4,34.8,22.1,42.2c5.4,2.7,6.7,4,2,9.4
		c-18.8,22.1-10.1,56.3,14.1,67C357.1,558.6,367.2,557.9,377.2,557.9z M265.3,386.4c6,0,9.4-4,10.1-9.4c0-5.4-4-8.7-8.7-8.7
		c-5.4,0-8.7,2.7-9.4,8.7C257.3,383,260,385.7,265.3,386.4z M294.1,525.8c0-6-3.4-9.4-8-9.4c-5.4-0.7-8.7,3.4-8.7,8
		c0,5.4,2,9.4,8,9.4C290.8,533.8,293.5,529.8,294.1,525.8z M260.6,425.3c0,5.4,3.4,8.7,8,8.7c5.4,0,8-4,8.7-8.7c0-5.4-3.4-8.7-8.7-8
		C264,416.5,260.6,419.9,260.6,425.3z M270.7,487.6c3.4-0.7,6.7-3.4,6.7-8c0-4.7-3.4-8-8-8c-4.7,0-8,3.4-8,8
		C261.3,484.9,264,488.2,270.7,487.6z M278.7,320.1c-4,0.7-6.7,2.7-6.7,7.4s2.7,8,7.4,7.4c4,0,7.4-2.7,7.4-7.4
		C287.4,322.1,284.1,320.1,278.7,320.1z"/>
	<path fill="#3762FE" d="M393.3,319.4c6,0,8.7,4.7,12.7,8c65,54.3,64.3,159.5-1.3,213.1c-1.3,0.7-2,1.3-3.4,2
		c-1.3-2.7-2.7-1.3-4.7-0.7c-7.4,3.4-14.7,2-22.8-0.7c-12.7-4.7-18.8-14.7-19.4-27.5c-0.7-12.1,4-22.8,16.1-28.8
		c6.7-3.4,13.4-4.7,20.8-5.4c-8-6.7-8-6.7-5.4-13.4c-2.7,0.7-4.7,1.3-6.7,2c-15.4,4-33.5-6-37.5-21.4c-5.4-22.1,7.4-39.5,29.5-41.5
		c1.3,0,4.7,0.7,4-0.7c-1.3-6.7,4-4.7,6.7-6c8-3.4,15.4-6.7,20.1-14.7c-3.4-1.3-5.4,0-7.4,0.7c-14.1,4-30.8-4.7-36.2-18.1
		c-6.7-16.1-0.7-32.8,13.4-40.9C379.2,322.1,386.6,322.7,393.3,319.4z M378.6,365.6c7.4,0,12.7-5.4,12.7-12.7
		c0-7.4-6-14.1-12.7-13.4c-6.7,0-12.1,6.7-12.1,13.4C366.5,360.3,371.9,365.6,378.6,365.6z M376.6,446c6.7,0,12.1-6,12.1-13.4
		c0-7.4-6.7-12.7-14.1-12.1c-6,0-11.4,5.4-11.4,12.1C363.2,440,369.9,446,376.6,446z M389.3,500.3c-6.7-0.7-12.7,4.7-12.7,10.7
		s3.4,10.1,10.1,10.1c7.4,0.7,12.7-3.4,12.7-10.1C400,505.7,395.3,501,389.3,500.3z"/>
	<path fill="#44A4FA" d="M393.3,319.4c-6.7,2.7-14.1,2.7-20.8,6c-14.1,8-20.1,24.8-13.4,40.9c5.4,13.4,22.1,21.4,36.2,18.1
		c2-0.7,4-2.7,7.4-0.7c-4.7,8-12.1,11.4-20.1,14.7c-2.7,1.3-8-0.7-6.7,6c0,1.3-2.7,0.7-4,0.7c-22.8,2-35.5,19.4-29.5,41.5
		c4,16.1,21.4,26.1,37.5,21.4c2-0.7,4.7-1.3,6.7-2c-2.7,6.7-2.7,6.7,5.4,13.4c-7.4,1.3-14.1,2-20.8,5.4c-12.1,6-16.1,16.8-16.1,28.8
		c0.7,12.7,6.7,22.8,19.4,27.5c7.4,2.7,14.7,4,22.8,0.7c2-0.7,3.4-1.3,4.7,0.7c-6.7,7.4-14.7,12.1-24.1,15.4
		c-10.1,0-20.1,0-30.2-4.7c-23.5-10.7-32.8-44.9-14.1-67c4.7-5.4,3.4-6.7-2-9.4c-15.4-8-24.8-26.8-22.1-42.2
		c4-21.4,16.1-34.8,35.5-38.9c0.7,0,0.7-0.7,2-0.7c-2-4-6.7-5.4-10.1-8.7c-22.1-23.5-12.1-62.3,18.8-72.4
		c10.1-3.4,19.4-3.4,29.5,0.7c2,0.7,4,1.3,6,1.3C392.6,316,393.3,317.4,393.3,319.4z"/>
	<path fill="#3762FE" d="M239.2,551.9c-31.5-18.8-51.6-46.9-61-81.7c-17.4-61,11.4-124.6,58.3-153.4c0,10.7-1.3,22.1,7.4,30.8
		c2.7,2.7-0.7,3.4-3.4,4c-21.4,5.4-28.8,30.8-14.1,46.2c4.7,5.4,4.7,8,0.7,13.4c-10.7,15.4-9.4,31.5,5.4,44.2c4.7,4,3.4,4.7-0.7,8
		c-18.8,14.1-16.8,37.5,3.4,49.6c4,2,5.4,4,3.4,8.7c-3.4,6.7-3.4,14.1-0.7,21.4C238.5,545.9,240.5,548.5,239.2,551.9z"/>
	<path fill="#45A2FB" d="M239.2,551.9c0.7-3.4-0.7-6-2-9.4c-2.7-7.4-2.7-14.7,0.7-21.4c2-4.7,0.7-6.7-3.4-8.7
		c-20.1-12.1-21.4-34.8-3.4-49.6c4-2.7,5.4-4,0.7-8c-14.1-12.7-16.1-28.8-5.4-44.2c4-5.4,4-8-0.7-13.4
		c-15.4-15.4-7.4-40.9,14.1-46.2c2.7-0.7,5.4-2,3.4-4c-8.7-9.4-7.4-20.1-7.4-30.8c10.1-10.1,22.8-12.7,35.5-17.4
		c2.7,2.7,6.7,2.7,8.7,6c-19.4,5.4-24.1,10.7-23.5,24.8c0.7,10.1,6.7,14.7,25.5,17.4c-6.7,6.7-14.7,8.7-22.8,10.1
		c-13.4,2.7-19.4,8.7-20.1,20.1c0,11.4,6.7,20.1,18.1,21.4c0.7,0,1.3,0,2.7,0c4,0,4.7,4,5.4,6c1.3,3.4-3.4,2.7-5.4,3.4
		c-3.4,0.7-7.4,1.3-10.1,3.4c-7.4,6-10.1,14.7-6.7,23.5c2.7,7.4,10.1,12.1,18.8,12.1c3.4,0,6.7-0.7,11.4-0.7
		c-6,8-12.1,13.4-20.1,16.8c-11.4,4.7-16.8,13.4-13.4,25.5c3.4,10.7,12.1,16.8,24.1,14.1c6-1.3,6.7,3.4,10.1,5.4
		c-16.1,6-22.1,15.4-18.1,26.8c4,12.7,14.1,16.8,31.5,12.1c-4.7,8.7-12.1,12.7-21.4,14.1c-2.7,0-5.4-0.7-7.4,1.3
		c-5.4-1.3-10.1-4-14.7-7.4c-0.7-0.7-1.3-1.3-2-2l0,0C242.5,551.9,241.2,551.9,239.2,551.9L239.2,551.9z"/>
	<path fill="#3762FE" d="M239.2,551.9c1.3,0,2.7,0,3.4,2C241.2,553.9,239.9,553.2,239.2,551.9z"/>
	<path fill="#3762FE" d="M242.5,553.2c0.7,0.7,1.3,1.3,2,2C243.9,554.6,242.5,554.6,242.5,553.2z"/>
	<path fill="#ABBCFE" d="M265.3,386.4c-5.4-0.7-8-4-8-9.4c0-6,4-8.7,9.4-8.7c4.7,0,8.7,3.4,8.7,8.7C275.4,383,272,386.4,265.3,386.4
		z"/>
	<path fill="#ABBCFE" d="M294.1,525.8c-0.7,4.7-3.4,8-8.7,8c-6,0-8-4.7-8-9.4c0-5.4,3.4-8.7,8.7-8
		C290.8,516.4,294.1,519.7,294.1,525.8z"/>
	<path fill="#ABBCFE" d="M260.6,425.3c0-5.4,3.4-8.7,8-8.7s8.7,2.7,8.7,8c0,4.7-3.4,8.7-8.7,8.7C264,434,260.6,430.6,260.6,425.3z"
		/>
	<path fill="#ABBCFE" d="M270.7,487.6c-6.7,0-9.4-2.7-10.1-7.4c0-4.7,3.4-8,8-8s8,2.7,8,8C277.4,484.9,274,486.9,270.7,487.6z"/>
	<path fill="#ABBCFE" d="M278.7,320.1c5.4,0,8,2,8,7.4c0,4.7-3.4,7.4-7.4,7.4c-4.7,0-7.4-2.7-7.4-7.4
		C272,322.1,275.4,320.1,278.7,320.1z"/>
	<path fill="#ABBCFE" d="M378.6,365.6c-7.4,0-12.7-5.4-12.1-12.7c0-6.7,6-13.4,12.1-13.4c6.7,0,12.7,6,12.7,13.4
		C391.3,360.3,385.9,365.6,378.6,365.6z"/>
	<path fill="#ABBCFE" d="M376.6,446c-6.7,0-13.4-6-13.4-13.4c0-6.7,4.7-12.1,11.4-12.1c7.4,0,13.4,4.7,14.1,12.1
		C388.6,440,383.9,445.4,376.6,446z"/>
	<path fill="#ABBCFE" d="M389.3,500.3C396,501,400,505,399.3,511c0,6.7-5.4,10.1-12.7,10.1c-6.7-0.7-10.1-4-10.1-10.1
		C375.9,505,382.6,500.3,389.3,500.3z"/>
</g>
</svg>
