<?xml version="1.0" encoding="utf-8"?>
<!-- Generator: Adobe Illustrator 21.1.0, SVG Export Plug-In . SVG Version: 6.00 Build 0)  -->
<svg version="1.0" id="Layer_1" xmlns="http://www.w3.org/2000/svg" xmlns:xlink="http://www.w3.org/1999/xlink" x="0px" y="0px"
	 viewBox="0 0 612 792" enable-background="new 0 0 612 792" xml:space="preserve">
<g>
	<path fill="#46A6FA" d="M321.6,478.8c-48.2-1.7-86.8-21.3-111.5-63.9c-22.4-38.7-17.4-87.4,10.1-120.4
		c54.3-66.1,165.8-55.5,207.8,21.8c26.9,48.7,13.4,109.2-36.4,142.3C371.5,471.6,345.7,478.8,321.6,478.8z M393.3,345
		c9-5,12.9-12.9,11.8-23c-1.1-5.6-2.2-10.6-5.6-15.7c-9-14.6-25.8-20.2-40.9-13.4c-15.1,6.7-23,23.5-17.9,39.2
		c3.9,11.8,11.8,19,23.5,21.3C375.4,355.6,386,354.5,393.3,345z"/>
	<path fill="#F8FAFB" d="M393.3,345c-7.3,9.5-17.9,10.6-28.6,9c-11.8-2.2-20.2-10.1-23.5-21.3c-5-16.2,2.8-33.1,17.9-39.2
		c15.1-6.7,31.9-0.6,40.9,13.4c2.8,5,4.5,10.1,5.6,15.7c-1.7,0.6-2.2,2.2-3.4,3.4c-3.4,3.9-7.8,4.5-12.3,2.8c-3.9-1.7-6.2-5-6.2-9.5
		c0-4.5,2.2-8.4,6.2-10.1c1.1-0.6,2.8-1.1,5-1.7c-5-1.7-9-3.4-13.4-2.8c-14.6,2.8-21.8,14.6-18.5,28
		C366.4,343.8,379.9,349.4,393.3,345z"/>
	<path fill="#060606" d="M393.3,345c-13.4,5-26.9-1.1-30.3-13.4c-3.9-13.4,3.9-25.2,18.5-28c4.5-1.1,8.4,1.1,13.4,2.8
		c-2.2,1.1-3.9,1.1-5,1.7c-4.5,1.7-6.7,5.6-6.2,10.1c0,4.5,2.2,7.8,6.2,9.5c4.5,1.7,9,1.1,12.3-2.8c1.1-1.1,1.7-2.8,3.4-3.4
		C406.2,332.1,402.3,339.4,393.3,345z"/>
</g>
</svg>
