<?xml version="1.0" encoding="utf-8"?>
<!-- Generator: Adobe Illustrator 21.1.0, SVG Export Plug-In . SVG Version: 6.00 Build 0)  -->
<svg version="1.0" id="Layer_1" xmlns="http://www.w3.org/2000/svg" xmlns:xlink="http://www.w3.org/1999/xlink" x="0px" y="0px"
	 viewBox="0 0 612 792" enable-background="new 0 0 612 792" xml:space="preserve">
<g>
	<path fill="#FAA945" d="M304,383.8c-2.6-2.6-5.8-2.6-9-3.8c-39.1-14.7-65.3-41.6-74.9-82.6c-2.6-9.6-1.9-19.8-0.6-29.5
		c0.6-3.8,2.6-5.8,5.8-7.7c16.6-9.6,33.9-14.7,52.5-17.3c66.6-7.7,118.5,32.7,138.3,78.1c11.5,26.3,14.7,53.1,9,81.3
		c-9,46.1-35.2,78.8-76.8,97.3c-44.8,19.8-89,16-130.6-10.9c-3.8-2.6-3.8-5.1-3.2-9C225.9,431.2,255.3,399.2,304,383.8
		C303.4,383.8,303.4,383.8,304,383.8z"/>
</g>
</svg>
