<?xml version="1.0" encoding="utf-8"?>
<!-- Generator: Adobe Illustrator 21.1.0, SVG Export Plug-In . SVG Version: 6.00 Build 0)  -->
<svg version="1.0" id="Layer_1" xmlns="http://www.w3.org/2000/svg" xmlns:xlink="http://www.w3.org/1999/xlink" x="0px" y="0px"
	 viewBox="0 0 612 792" enable-background="new 0 0 612 792" xml:space="preserve">
<g>
	<g>
		<path fill="#FAA946" d="M331.8,525.4c-53-2-99.9-25.8-129.8-77.5c-27.2-46.9-21.1-106.7,12.2-146.1
			c65.9-80.2,201.1-67.3,252.1,26.5c31.9,59.1,16.3,132.5-44.2,172.6C396.3,517.2,367.8,525.4,331.8,525.4z M424.2,363
			c10.9-6.1,15.6-15.6,14.3-27.9c-1.4-6.8-2.7-12.9-6.8-19c-10.9-17.7-31.3-24.5-49.6-16.3c-18.3,7.5-27.9,27.2-21.7,46.9
			c4.1,14.3,14.3,23.8,29.2,26.5C402.4,375.9,415.3,374.5,424.2,363z"/>
		<path fill="#FBFAF8" d="M424.2,363c-8.8,11.6-21.7,12.9-34.7,10.9c-14.3-2.7-24.5-12.2-29.2-26.5c-5.4-19.7,4.1-39.4,21.7-46.9
			c18.3-8.2,38.7-0.7,49.6,16.3c3.4,6.1,5.4,12.2,6.8,19c-1.4,1.4-2,2-3.4,3.4c-4.1,5.4-9.5,6.1-15.6,4.1c-4.8-2-7.5-6.1-7.5-11.6
			c0-6.1,2.7-10.2,8.8-12.2c1.4-0.7,2.7-1.4,5.4-2c-6.1-2-10.9-4.1-16.3-3.4c-17.7,3.4-26.5,17.7-22.4,34
			C391.6,361.6,407.9,368.4,424.2,363z"/>
		<path fill="#060606" d="M424.2,363c-16.3,6.1-32.6-1.4-36.7-16.3c-4.8-16.3,4.8-30.6,22.4-34c5.4-1.4,10.2,1.4,16.3,3.4
			c-2.7,0.7-4.1,1.4-5.4,2c-6.1,2-8.8,6.1-8.8,12.2c0,5.4,2.7,9.5,7.5,11.6c5.4,2,11.6,1.4,15.6-4.1c0.7-1.4,2-2,3.4-3.4
			C439.8,347.4,435.1,356.2,424.2,363z"/>
	</g>
</g>
</svg>
