<?xml version="1.0" encoding="utf-8"?>
<!-- Generator: Adobe Illustrator 21.1.0, SVG Export Plug-In . SVG Version: 6.00 Build 0)  -->
<svg version="1.0" id="Layer_1" xmlns="http://www.w3.org/2000/svg" xmlns:xlink="http://www.w3.org/1999/xlink" x="0px" y="0px"
	 viewBox="0 0 612 792" enable-background="new 0 0 612 792" xml:space="preserve">
<g>
	<path fill="#FEE237" d="M388.6,518.5c-25.4,14.1-52.9,19.1-81.9,16.2c-15.5-1.4-31.8-4.9-45.9-12.7c17.6,0.7,26.1-2.8,31.8-14.1
		c-16.9,4.2-26.1,0.7-31.1-12c-2.8-6.4-2.8-13.4,2.1-19.1c4.2-4.9,9.9-9.2,16.9-10.6c-4.2-2.8-5.6-7.8-12-5.6
		c-12,2.8-21.9-4.2-24.7-15.5c-2.8-11.3,2.8-21.2,14.1-26.1c8.5-3.5,14.8-9.2,19.8-17.6c-4.9,0.7-9.9,0.7-14.1,0.7
		c-9.2-0.7-16.2-7.8-17.6-15.5c-1.4-12.7,2.8-20.5,12.7-23.3c6.4-2.1,12.7-2.8,11.3-11.3c0-0.7-0.7-0.7-0.7-1.4
		c-12.7,2.8-23.3-3.5-26.1-14.8c-3.5-14.1,3.5-24.7,20.5-28.2c8.5-2.1,17.6-3.5,24.7-11.3c-16.9-0.7-25.4-5.6-26.8-14.8
		c-0.7-7.1-1.4-14.1,4.9-20.5c5.6-6.4,12.7-6.4,20.5-8.5c-4.2-4.2-7.8-5.6-12-5.6c43.8-14.8,85.4-9.9,124.2,14.8
		c-9.9,0-18.3-4.2-28.9-1.4c-19.1,4.9-33.2,16.9-36.7,38.1c-2.8,17.6,2.8,33.2,17.6,44.5c1.4,1.4,4.2,1.4,4.2,4.9
		c-22.6,4.9-36,19.1-39.5,40.9c-2.1,14.1,5.6,39.5,26.1,47.3c6.4,2.1,2.8,4.9,0.7,7.8c-18.3,21.2-13.4,54.3,9.2,69.2
		C363.2,518.5,375.9,519.2,388.6,518.5z M270.8,337.1c6.4,0,9.9-4.2,9.9-9.9c0-5.6-4.2-9.9-9.9-9.9c-5.6,0-9.2,3.5-9.2,9.9
		C261.6,333.6,265.1,337.1,270.8,337.1z M300.4,484.6c0-7.1-3.5-10.6-9.2-10.6c-4.2,0-9.2,2.8-8.5,8.5c0,5.6,2.1,10.6,8.5,10.6
		C296.9,493.1,299.7,489.6,300.4,484.6z M274.3,368.2c-5.6,1.4-9.2,4.2-9.2,10.6c0,5.6,3.5,8.5,8.5,8.5c5.6,0,9.2-4.2,9.2-9.9
		C282.8,372.4,279.3,369.6,274.3,368.2z M274.3,444.4c5.6,0,8.5-3.5,8.5-8.5c0-4.9-3.5-8.5-8.5-8.5c-5.6,0-9.2,3.5-9.2,9.2
		C265.8,441.6,268.7,445.1,274.3,444.4z M292.7,272.9c0.7-4.9-3.5-7.1-7.8-7.8c-4.9,0-7.8,3.5-7.8,9.2c0,5.6,2.8,7.8,7.8,7.8
		C289.8,282.8,292.7,280,292.7,272.9z"/>
	<path fill="#FEE337" d="M405.6,266.6c12,3.5,19.1,13.4,26.8,21.9c55,62.1,48.7,156.7-13.4,211c-1.4,1.4-3.5,2.1-4.9,3.5
		c-1.4-2.8-3.5-1.4-4.9-0.7c-7.8,3.5-15.5,2.1-24-0.7c-13.4-4.9-19.8-15.5-20.5-28.9c-0.7-13.4,4.9-24,16.9-30.3
		c6.4-3.5,14.1-4.9,22.6-5.6c-4.9-4.2-12.7-5.6-5.6-14.1c-5.6,1.4-9.9,2.8-14.8,2.8c-17.6,0.7-31.8-11.3-34.6-28.9
		c-2.1-14.1,5.6-33.2,26.1-37.4c11.3-2.1,20.5-10.6,30.3-14.8c3.5-1.4,7.1-4.9,9.2-11.3c-10.6,4.9-19.8,4.9-28.9,1.4
		c-13.4-5.6-19.8-15.5-20.5-28.9c-0.7-13.4,4.9-23.3,16.9-31.1C390.7,268.7,398.5,269.4,405.6,266.6z M403.5,302.5
		c0-7.8-6.4-14.8-14.1-14.8c-6.4,0-12.7,7.8-12.7,14.8c0,7.8,5.6,13.4,13.4,13.4C397.8,315.2,403.5,309.6,403.5,302.5z M400.6,387.2
		c0-7.8-5.6-13.4-13.4-14.1c-7.1,0-13.4,5.6-13.4,12c0,7.8,7.1,14.8,14.1,14.8S400.6,394.3,400.6,387.2z M399.9,457.8
		c-6.4,0-12.7,4.9-12.7,10.6c0,6.4,4.9,11.3,12,11.3c7.8,0,12.7-4.2,12.7-10.6C411.9,462,407.7,457.8,399.9,457.8z"/>
	<path fill="#FAAA44" d="M405.6,266.6c-7.1,2.8-15.5,2.1-21.9,6.4c-11.3,7.1-17.6,17.6-16.9,31.1c0.7,13.4,7.1,24,20.5,28.9
		c9.2,3.5,18.3,3.5,28.9-1.4c-2.8,6.4-5.6,9.2-9.2,11.3c-10.6,4.2-19.1,12.7-30.3,14.8c-20.5,4.2-28.9,23.3-26.1,37.4
		c2.8,17.6,17.6,29.6,34.6,28.9c4.2,0,8.5-1.4,14.8-2.8c-7.8,7.8,0,9.9,5.6,14.1c-8.5,1.4-16.2,2.1-22.6,5.6
		c-12,7.1-17.6,17.6-16.9,30.3c0.7,13.4,7.1,24,20.5,28.9c7.8,2.8,15.5,4.2,24,0.7c2.1-0.7,3.5-1.4,4.9,0.7
		c-7.1,7.8-15.5,13.4-25.4,16.2c-13.4,0.7-25.4,0-37.4-7.8c-22.6-14.8-27.5-47.3-9.2-69.2c2.8-2.8,5.6-5.6-0.7-7.8
		c-20.5-7.8-28.2-33.2-26.1-47.3c3.5-21.2,16.9-36,39.5-40.9c0.7-2.8-2.8-3.5-4.2-4.9c-14.8-11.3-21.2-26.8-17.6-44.5
		c3.5-21.2,17.6-33.9,36.7-38.1c10.6-2.8,19.1,1.4,28.9,1.4l0,0c0.7,1.4,1.4,2.1,2.8,2.1C403.5,264.4,404.9,265.1,405.6,266.6z"/>
	<path fill="#FEE237" d="M242.6,512.1c-33.9-19.8-54.3-49.4-64.9-86.8c-16.2-60,5.6-122.8,55.7-158.8c2.1-1.4,3.5-2.1,5.6-3.5
		c0,11.3-2.1,22.6,7.1,31.8c2.8,3.5-1.4,4.2-3.5,4.9c-24.7,10.6-29.6,32.5-12,52.2c2.1,2.8,3.5,4.2,0.7,7.8
		c-12.7,12.7-13.4,38.1,3.5,50.8c3.5,2.8,4.2,4.2,0,7.1c-4.9,2.8-9.2,7.1-11.3,12c-7.1,16.2-2.8,31.8,13.4,40.2
		c4.9,2.8,6.4,5.6,3.5,10.6c-4.2,7.8-2.8,15.5-0.7,22.6C241.1,506.5,243.3,508.6,242.6,512.1z"/>
	<path fill="#FBAC45" d="M242.6,512.1c0.7-3.5-1.4-5.6-2.1-8.5c-2.1-7.8-4.2-15.5,0.7-22.6c2.8-4.9,1.4-7.8-3.5-10.6
		c-15.5-8.5-20.5-24-13.4-40.2c2.1-5.6,7.1-9.2,11.3-12c4.2-2.8,3.5-4.2,0-7.1c-16.9-12-16.2-38.1-3.5-50.8c2.8-2.8,2.1-4.9-0.7-7.8
		c-17.6-19.8-12.7-41.6,12-52.2c2.1-0.7,6.4-1.4,3.5-4.9c-8.5-9.2-7.1-21.2-7.1-31.8c9.9-9.9,22.6-13.4,35.3-16.9
		c4.2,0,8.5,2.1,12,5.6c-7.8,2.1-14.8,2.1-20.5,8.5c-5.6,6.4-5.6,13.4-4.9,20.5c1.4,9.2,9.9,14.1,26.8,14.8
		c-7.8,7.8-16.2,9.9-24.7,11.3c-16.2,3.5-24,13.4-20.5,28.2c2.8,11.3,13.4,17.6,26.1,14.8c0,0.7,0.7,0.7,0.7,1.4
		c1.4,9.2-4.9,9.9-11.3,11.3c-9.9,2.8-14.1,11.3-12.7,23.3c0.7,8.5,8.5,14.8,17.6,15.5c4.9,0.7,9.2,0,14.1-0.7
		c-4.9,8.5-12,14.1-19.8,17.6c-11.3,4.9-16.9,14.1-14.1,26.1c2.8,11.3,13.4,18.3,24.7,15.5c6.4-1.4,7.8,2.8,12,5.6
		c-7.8,2.1-12.7,5.6-16.9,10.6c-4.9,5.6-4.9,12.7-2.1,19.1c4.9,12.7,14.1,15.5,31.1,12c-4.9,12-14.1,14.8-31.8,14.1
		c-4.9-0.7-9.2-3.5-13.4-6.4c-0.7-0.7-1.4-1.4-2.1-2.1l0,0C246.1,512.1,244.7,512.1,242.6,512.1L242.6,512.1z"/>
	<path fill="#FEE237" d="M402,263c-1.4,0-2.8-0.7-2.8-2.1C400.6,260.9,402,260.9,402,263z"/>
	<path fill="#FEE237" d="M242.6,512.1c1.4,0,2.8,0,3.5,2.1C244.7,514.3,243.3,513.5,242.6,512.1z"/>
	<path fill="#FEE237" d="M246.1,513.5c0.7,0.7,1.4,1.4,2.1,2.1C247.5,515,246.8,514.3,246.1,513.5z"/>
	<path fill="#FEF4AB" d="M270.8,337.1c-5.6-0.7-9.2-3.5-9.2-9.9s4.2-9.9,9.2-9.9c5.6,0,9.9,4.2,9.9,9.9
		C280.7,332.9,277.1,337.1,270.8,337.1z"/>
	<path fill="#FEF4AB" d="M300.4,484.6c-0.7,4.9-3.5,9.2-9.9,8.5c-6.4-0.7-8.5-5.6-8.5-10.6c0-5.6,4.2-8.5,8.5-8.5
		C296.9,474,300.4,477.6,300.4,484.6z"/>
	<path fill="#FEF4AB" d="M274.3,368.2c4.9,0.7,9.2,3.5,9.2,8.5c0,5.6-3.5,9.9-9.2,9.9c-4.9,0-8.5-2.8-8.5-8.5
		C264.4,372.4,268.7,369.6,274.3,368.2z"/>
	<path fill="#FEF4AB" d="M274.3,444.4c-5.6,0.7-8.5-2.8-9.2-7.8c0-5.6,3.5-9.2,9.2-9.2c4.9,0,8.5,3.5,8.5,8.5
		C282.8,440.9,280,444.4,274.3,444.4z"/>
	<path fill="#FEF4AB" d="M292.7,272.9c0,7.1-2.8,9.9-8.5,9.9c-4.2,0-7.8-2.8-7.8-7.8s2.8-9.2,7.8-9.2
		C289.1,265.8,294.1,268,292.7,272.9z"/>
	<path fill="#FEF4AB" d="M403.5,302.5c0,7.8-6.4,13.4-13.4,13.4c-7.8,0-13.4-5.6-13.4-13.4c0-7.1,6.4-14.8,12.7-14.8
		C397.1,287,404.2,294.1,403.5,302.5z"/>
	<path fill="#FEF4AB" d="M400.6,387.2c0,7.1-5.6,12.7-12.7,12.7s-14.1-7.1-14.1-14.8c0-6.4,6.4-12,13.4-12
		C395,373.1,400.6,379.5,400.6,387.2z"/>
	<path fill="#FEF4AB" d="M399.9,457.8c7.1,0,12,4.2,12,11.3c0,6.4-4.9,10.6-12.7,10.6c-7.8,0-12.7-4.2-12-11.3
		C387.2,462.7,393.6,457.8,399.9,457.8z"/>
</g>
</svg>
