<?xml version="1.0" encoding="utf-8"?>
<!-- Generator: Adobe Illustrator 21.1.0, SVG Export Plug-In . SVG Version: 6.00 Build 0)  -->
<svg version="1.0" id="Layer_1" xmlns="http://www.w3.org/2000/svg" xmlns:xlink="http://www.w3.org/1999/xlink" x="0px" y="0px"
	 viewBox="0 0 612 792" enable-background="new 0 0 612 792" xml:space="preserve">
<g>
	<path fill="#CE54F1" d="M294.6,403.4c-1.3-2.7-4.7-3.4-6.7-3.4c-14.2-2-25.6-10.1-35.7-18.9c-24.3-18.9-41.8-42.5-46.5-74.2
		c-1.3-8.1,0-16.2,0-24.3c0-5.4,3.4-8.1,8.1-10.8c21.6-12.1,45.2-18.2,70.1-18.2c67.4,0.7,122.1,45.9,136.9,106.6
		c20.9,83.6-32.4,162.6-114.7,176c-36.4,6.1-70.1-2-101.2-21.6c-4-2.7-4.7-5.4-3.4-10.1c12.1-51.3,42.5-85,93.1-100.5
		C293.9,404.1,294.6,403.4,294.6,403.4z"/>
</g>
</svg>
