<?xml version="1.0" encoding="utf-8"?>
<!-- Generator: Adobe Illustrator 21.1.0, SVG Export Plug-In . SVG Version: 6.00 Build 0)  -->
<svg version="1.0" id="Layer_1" xmlns="http://www.w3.org/2000/svg" xmlns:xlink="http://www.w3.org/1999/xlink" x="0px" y="0px"
	 viewBox="0 0 612 792" enable-background="new 0 0 612 792" xml:space="preserve">
<g>
	<path fill="#CF55F1" d="M324.4,509.2c-47-2-93.2-25.5-122.7-75.8c-20.8-35.5-23.5-74.5-7.4-112.7c21.5-49.6,61-75.8,114-83.2
		c39.6-5.4,76.5,3.4,109.3,26.2c37.6,26.2,59.7,62.4,61,108.7c1.3,51-22.1,89.2-65.7,116C389.4,502.5,363.3,509.2,324.4,509.2z
		 M420.3,348.9c10.7-6,16.1-15.4,14.8-27.5c-1.3-6.7-2.7-12.7-6.7-18.8c-10.7-17.4-30.9-24.1-49.6-16.1c-17.4,8-26.8,27.5-20.8,47
		c4.7,14.1,14.8,23.5,28.8,26.2C399.5,361.6,412.2,360.3,420.3,348.9z"/>
	<path fill="#FAF9FB" d="M420.3,348.9c-8.7,11.4-20.8,12.7-33.5,10.7c-14.1-2.7-24.8-11.4-28.8-26.2c-6-18.8,3.4-38.9,20.8-47
		c18.1-8,38.2-1.3,49.6,16.1c3.4,6,5.4,12.1,6.7,18.8c-2,0.7-2.7,2.7-4,4c-4,4.7-9.4,5.4-14.8,3.4c-4.7-2-7.4-6-7.4-11.4
		c0-5.4,2.7-9.4,7.4-12.1c2-0.7,3.4-1.3,6-2.7c-6-1.3-10.7-4-16.1-2.7c-17.4,3.4-26.2,16.8-22.1,33.5
		C388.8,346.9,404.9,354.2,420.3,348.9z"/>
	<path fill="#060606" d="M420.3,348.9c-16.1,6-32.2-1.3-36.2-16.1c-4-16.1,4.7-30.2,22.1-33.5c5.4-0.7,10.1,1.3,16.1,2.7
		c-2.7,1.3-4.7,2-6,2.7c-5.4,2.7-7.4,6.7-7.4,12.1c0,5.4,2.7,9.4,7.4,11.4c5.4,2,10.7,1.3,14.8-3.4c1.3-1.3,1.3-3.4,4-4
		C436.4,333.4,431,342.8,420.3,348.9z"/>
</g>
</svg>
