<?xml version="1.0" encoding="utf-8"?>
<!-- Generator: Adobe Illustrator 21.1.0, SVG Export Plug-In . SVG Version: 6.00 Build 0)  -->
<svg version="1.0" id="Layer_1" xmlns="http://www.w3.org/2000/svg" xmlns:xlink="http://www.w3.org/1999/xlink" x="0px" y="0px"
	 viewBox="0 0 612 792" enable-background="new 0 0 612 792" xml:space="preserve">
<g>
	<path fill="#F448E2" d="M391,516.5c-25.3,14.1-52.7,19-81.6,16.2c-15.5-1.4-31.6-4.9-45.7-12.7c19-0.7,26-3.5,29.5-12.7
		c-17.6,1.4-27.4-2.8-30.2-13.4c-1.4-4.9-1.4-9.1,0-14.1c2.8-8.4,9.1-12.7,16.9-14.8c-2.8-9.1-9.1-5.6-14.8-5.6
		c-9.8-0.7-16.9-5.6-19.7-14.1c-3.5-9.8-0.7-19,7.7-24.6c5.6-3.5,11.3-7,16.9-10.5c3.5-2.1,8.4-4.2,7.7-7.7
		c-0.7-3.5-6.3-1.4-9.8-1.4c-9.1,0-14.8-4.2-18.3-12c-3.5-7.7-2.8-15.5,3.5-22.5c5.6-5.6,12.7-7,19.7-8.4c-1.4-5.6-4.2-7.7-9.8-8.4
		c-9.8-0.7-17.6-9.8-17.6-19c-0.7-13.4,4.2-19,16.2-23.2c9.1-2.8,19-4.2,27.4-10.5c-16.9-3.5-26.7-11.3-26.7-22.5
		c0-6.3,2.1-12.7,7-17.6c4.9-4.9,12-4.9,19-5.6c-2.8-4.9-7-4.9-11.3-6.3c45-14.8,87.2-9.8,127.3,16.9c-2.8,0.7-4.9-0.7-7-1.4
		c-19-7-35.2-1.4-49.2,12c-12.7,12-15.5,31.6-9.1,48.5c4.2,10.5,12,16.9,19.7,24.6c-0.7,0.7-1.4,1.4-1.4,1.4
		c-23.9,7-36.6,19.7-38,42.2c-1.4,19.7,7.7,35.2,26,44.3c4.9,2.8,2.8,4.2,0.7,7.7c-22.5,26.7-9.8,66.8,24.6,75.2
		C376.9,517.2,383.9,516.5,391,516.5z M274.2,335.8c6.3-0.7,9.8-4.9,9.8-10.5s-4.9-9.1-10.5-9.1c-5.6,0.7-9.1,4.2-9.1,10.5
		C265.1,333,268.6,335.8,274.2,335.8z M303.1,482c0-7-4.2-9.8-9.1-9.8c-4.9,0-9.1,2.8-8.4,9.1c0.7,4.9,2.8,9.8,9.1,9.8
		C300.3,491.2,302.4,487,303.1,482z M267.9,375.1c0,7,3.5,10.5,8.4,10.5c5.6,0,9.1-4.2,9.1-9.8c0-4.9-3.5-8.4-8.4-8.4
		C272.1,367.4,267.9,370.2,267.9,375.1z M278.5,442.6c3.5-0.7,7-2.8,7-8.4c0-4.9-3.5-8.4-9.1-7.7c-4.9,0-8.4,3.5-8.4,8.4
		C267.9,439.1,270.7,442.6,278.5,442.6z M287.6,265.4c-4.9,0-7.7,2.8-7.7,7.7s3.5,8.4,8.4,8.4s7.7-3.5,7.7-9.1
		C296,266.9,292.5,265.4,287.6,265.4z"/>
	<path fill="#F448E2" d="M407.9,263.3c31.6,20.4,52,49.9,59.8,86.5c13.4,57-2.8,106.2-45.7,147c-1.4,1.4-3.5,2.8-5.6,4.2
		c-2.1-3.5-4.9-0.7-7.7,0c-15.5,4.2-31.6-2.8-38-16.9c-7.7-15.5-2.8-33,9.8-42.9c7-4.9,15.5-6.3,26.7-7c-8.4-3.5-13.4-6.3-6.3-14.1
		c-2.1,0-2.8,0-3.5,0.7c-14.8,5.6-27.4,2.1-37.3-9.1c-9.1-9.8-10.5-22.5-5.6-34.5c5.6-14.1,16.2-21.1,31.6-21.1
		c1.4,0,4.2,0.7,3.5-1.4c-1.4-5.6,2.8-4.2,4.9-4.9c9.1-2.8,16.9-7.7,23.2-14.8c-2.1-2.1-3.5-0.7-4.9-0.7c-14.1,4.9-26,1.4-35.9-9.1
		c-9.1-10.5-11.3-22.5-5.6-35.2c5.6-13.4,16.2-20.4,30.9-21.1C405,266.9,407.1,267.6,407.9,263.3z M405.7,300.6
		c0-7.7-6.3-14.1-14.1-14.1c-6.3,0-13.4,7.7-12.7,15.5c0,7.7,6.3,13.4,14.1,12.7C400.8,314,406.4,307.6,405.7,300.6z M402.9,385
		c0-7.7-5.6-13.4-14.1-13.4c-7,0-12.7,5.6-12.7,12.7c0,7,7,14.1,14.1,14.1C397.3,398.3,402.9,392.7,402.9,385z M402.2,477.8
		c7.7,0,12-4.2,12-10.5s-4.9-11.3-12-11.3c-6.3,0-12.7,5.6-12.7,11.3C389.6,473.6,394.5,477.8,402.2,477.8z"/>
	<path fill="#CF54F1" d="M407.9,263.3c-0.7,3.5-2.8,3.5-5.6,3.5c-14.8,0.7-25.3,7-30.9,21.1c-4.9,12.7-3.5,25.3,5.6,35.2
		c9.8,10.5,21.8,14.1,35.9,9.1c1.4-0.7,2.8-1.4,4.9,0.7c-6.3,7-14.1,12-23.2,14.8c-2.1,0.7-7-0.7-4.9,4.9c0.7,2.8-2.1,1.4-3.5,1.4
		c-14.8,0.7-26,7-31.6,21.1c-4.9,12.7-3.5,24.6,5.6,34.5c9.8,11.3,22.5,14.8,37.3,9.1c0.7,0,1.4,0,3.5-0.7c-7,7.7-2.1,10.5,6.3,14.1
		c-11.3,0.7-19.7,2.1-26.7,7c-13.4,9.8-17.6,27.4-9.8,42.9c7,14.1,23.2,21.1,38,16.9c2.1-0.7,4.9-3.5,7.7,0
		c-6.3,7-13.4,12-21.8,14.8c-1.4,0-2.8,0-3.5,1.4l0,0c-7-0.7-14.1,0.7-21.1-1.4c-34.5-8.4-47.8-48.5-24.6-75.2
		c2.8-2.8,4.2-4.9-0.7-7.7c-18.3-9.1-27.4-24.6-26-44.3c1.4-22.5,14.1-35.2,38-42.2c0.7,0,0.7-0.7,1.4-1.4
		c-7.7-7.7-15.5-14.1-19.7-24.6c-6.3-16.9-3.5-36.6,9.1-48.5c14.1-13.4,30.2-19,49.2-12c2.1,0.7,4.9,2.1,7,1.4l0,0
		C405,263.3,406.4,263.3,407.9,263.3L407.9,263.3z"/>
	<path fill="#F448E2" d="M246.1,510.2c-35.2-21.1-57-52.7-66.1-92.1c-14.1-60.5,12-125.2,64.7-157.5c-2.1,8.4-3.5,16.9,0,24.6
		c3.5,9.1,2.8,11.3-4.9,16.2c-19,11.3-21.1,34.5-4.9,49.9c3.5,2.8,4.2,4.9,0.7,8.4c-14.8,15.5-13.4,35.2,2.8,49.2
		c4.2,3.5,4.2,4.9-0.7,8.4c-16.2,10.5-18.3,31.6-4.9,45.7c3.5,4.2,10.5,4.9,12.7,8.4c2.8,4.2-5.6,9.1-3.5,15.5c0,0.7,0,1.4,0,2.8
		C240.5,496.8,246.8,503.1,246.1,510.2z"/>
	<path fill="#D154F2" d="M246.1,510.2c0.7-7.7-5.6-14.1-3.5-21.1c0-0.7,0-1.4,0-2.8c-2.1-6.3,6.3-10.5,3.5-15.5
		c-2.8-3.5-9.1-4.9-12.7-8.4c-13.4-14.1-11.3-35.2,4.9-45.7c4.9-2.8,4.9-4.2,0.7-8.4c-16.2-14.1-17.6-33.8-2.8-49.2
		c3.5-3.5,2.8-4.9-0.7-8.4c-16.9-14.8-14.1-38.7,4.9-49.9c7.7-4.2,8.4-7,4.9-16.2c-3.5-8.4-2.1-16.2,0-24.6
		c9.1-9.1,21.8-12,33.8-15.5c3.5,1.4,8.4,1.4,11.3,6.3c-7,0.7-13.4,1.4-19,5.6c-4.9,4.9-7,11.3-7,17.6c0,11.3,9.8,19,26.7,22.5
		c-8.4,6.3-18.3,7-27.4,10.5c-12,3.5-16.9,9.8-16.2,23.2c0,9.1,7.7,18.3,17.6,19c5.6,0.7,8.4,2.8,9.8,8.4c-7,1.4-14.1,2.8-19.7,8.4
		c-6.3,7-7.7,14.1-3.5,22.5c3.5,7.7,9.1,12.7,18.3,12c3.5,0,9.1-2.1,9.8,1.4c0.7,3.5-4.2,5.6-7.7,7.7c-5.6,3.5-11.3,7-16.9,10.5
		c-7.7,5.6-10.5,14.8-7.7,24.6c2.8,9.1,9.8,14.1,19.7,14.1c4.9,0,12-4.2,14.8,5.6c-7.7,2.1-14.8,6.3-16.9,14.8
		c-1.4,4.9-1.4,9.8,0,14.1c2.8,10.5,13.4,14.8,30.2,13.4c-3.5,9.1-10.5,12-29.5,12.7c-4.9-0.7-9.1-3.5-13.4-7
		c-0.7-1.4-2.1-2.1-3.5-2.1C246.8,511.6,246.1,510.9,246.1,510.2z"/>
	<path fill="#F448E2" d="M407.9,263.3c-1.4,0-2.8,0-3.5-2.1C405.7,261.9,407.1,261.9,407.9,263.3z"/>
	<path fill="#F448E2" d="M247.5,511.6c1.4,0,2.8,0.7,3.5,2.1C249.6,513,248.9,512.3,247.5,511.6z"/>
	<path fill="#F448E2" d="M391,517.2c0.7-1.4,2.1-1.4,3.5-1.4C393.8,516.5,392.4,516.5,391,517.2z"/>
	<path fill="#FAADF0" d="M274.2,335.8c-5.6,0-9.1-3.5-9.8-9.1c-0.7-6.3,3.5-9.8,9.1-10.5c5.6-0.7,9.8,3.5,10.5,9.1
		C284.1,330.8,280.6,335.1,274.2,335.8z"/>
	<path fill="#FAADF0" d="M303.1,482c-0.7,4.9-3.5,9.1-9.1,9.1c-6.3,0-8.4-4.9-9.1-9.8c-0.7-6.3,3.5-9.1,8.4-9.1
		C298.9,471.5,303.1,475,303.1,482z"/>
	<path fill="#FBB1F1" d="M267.9,375.1c0-4.9,4.2-7.7,9.8-7.7c4.9,0,8.4,3.5,8.4,8.4c0,5.6-3.5,9.8-9.1,9.8
		C271.4,385.7,267.9,382.2,267.9,375.1z"/>
	<path fill="#FAADF0" d="M278.5,442.6c-7.7,0.7-10.5-3.5-10.5-8.4c0-4.9,3.5-8.4,8.4-8.4s9.1,2.8,9.1,7.7
		C286.2,439.1,282,441.9,278.5,442.6z"/>
	<path fill="#FAADF0" d="M287.6,265.4c4.9,0,8.4,2.1,8.4,7c0,4.9-2.8,9.1-7.7,9.1s-8.4-3.5-8.4-8.4
		C279.9,267.6,282.7,265.4,287.6,265.4z"/>
	<path fill="#FBB1F1" d="M405.7,300.6c0,7.7-5.6,13.4-12.7,13.4c-7.7,0-13.4-4.9-14.1-12.7c0-7,6.3-15.5,12.7-15.5
		C399.4,285.8,405.7,292.9,405.7,300.6z"/>
	<path fill="#FBB1F1" d="M402.9,385c0,7.7-5.6,13.4-12.7,13.4c-7,0-14.1-7-14.1-14.1c0-7,5.6-12.7,12.7-12.7
		C397.3,371.6,402.9,377.3,402.9,385z"/>
	<path fill="#FBB1F1" d="M402.2,477.8c-7.7,0-12.7-4.2-12.7-10.5c0-5.6,6.3-11.3,12.7-11.3c7.7,0,12,4.2,12,11.3
		C414.2,473.6,410,477.8,402.2,477.8z"/>
</g>
</svg>
