<svg xmlns="http://www.w3.org/2000/svg" width="206.35" height="200.87" viewBox="0 0 206.35 200.87"><title>boxdrive</title><line x1="205.85" y1="50.43" x2="205.85" y2="150.43" style="fill:none;stroke:#000;stroke-miterlimit:10"/><line x1="119.25" y1="0.43" x2="205.85" y2="50.43" style="fill:none;stroke:#000;stroke-miterlimit:10"/><line x1="119.25" y1="100.43" x2="205.85" y2="50.43" style="fill:none;stroke:#000;stroke-miterlimit:10"/><line x1="119.85" y1="100.43" x2="119.85" y2="200.43" style="fill:none;stroke:#000;stroke-miterlimit:10"/><line x1="119.25" y1="200.43" x2="205.85" y2="150.43" style="fill:none;stroke:#000;stroke-miterlimit:10"/><line x1="49.77" y1="160.32" x2="119.25" y2="200.43" style="fill:none;stroke:#000;stroke-miterlimit:10"/><line x1="32.65" y1="50.43" x2="119.25" y2="100.43" style="fill:none;stroke:#000;stroke-miterlimit:10"/><line x1="32.65" y1="50.43" x2="119.25" y2="0.43" style="fill:none;stroke:#000;stroke-miterlimit:10"/><line x1="87.14" y1="127.24" x2="87.14" y2="138.74" style="fill:none;stroke:#000;stroke-miterlimit:10"/><line x1="43.84" y1="152.24" x2="87.14" y2="127.24" style="fill:none;stroke:#000;stroke-miterlimit:10"/><line x1="0.88" y1="128.9" x2="44.18" y2="103.9" style="fill:none;stroke:#000;stroke-miterlimit:10"/><line x1="0.88" y1="128.9" x2="43.84" y2="152.24" style="fill:none;stroke:#000;stroke-miterlimit:10"/><line x1="32.65" y1="50.43" x2="31.74" y2="111.08" style="fill:none;stroke:#000;stroke-miterlimit:10"/><line x1="43.84" y1="163.74" x2="87.14" y2="138.74" style="fill:none;stroke:#000;stroke-miterlimit:10"/><line x1="0.5" y1="139.25" x2="43.84" y2="163.24" style="fill:none;stroke:#000;stroke-miterlimit:10"/><line x1="0.5" y1="139.25" x2="0.5" y2="128.9" style="fill:none;stroke:#000;stroke-miterlimit:10"/><line x1="43.84" y1="152.24" x2="43.84" y2="163.24" style="fill:none;stroke:#000;stroke-miterlimit:10"/><line x1="43.84" y1="159.07" x2="4.84" y2="137.49" style="fill:none;stroke:#000;stroke-miterlimit:10"/><line x1="5.01" y1="141.75" x2="4.84" y2="137.49" style="fill:none;stroke:#000;stroke-miterlimit:10"/><line x1="47.43" y1="141.95" x2="55.09" y2="137.52" style="fill:none;stroke:#000;stroke-miterlimit:10"/><line x1="38.45" y1="137.18" x2="47.44" y2="142.06" style="fill:none;stroke:#000;stroke-miterlimit:10"/><line x1="39.11" y1="137.12" x2="46.78" y2="132.69" style="fill:none;stroke:#000;stroke-miterlimit:10"/><line x1="46.02" y1="132.96" x2="55" y2="137.84" style="fill:none;stroke:#000;stroke-miterlimit:10"/><line x1="30.25" y1="131.81" x2="37.92" y2="127.38" style="fill:none;stroke:#000;stroke-miterlimit:10"/><line x1="21.28" y1="127.04" x2="30.27" y2="131.92" style="fill:none;stroke:#000;stroke-miterlimit:10"/><line x1="21.94" y1="126.98" x2="29.61" y2="122.55" style="fill:none;stroke:#000;stroke-miterlimit:10"/><line x1="28.84" y1="122.82" x2="37.83" y2="127.7" style="fill:none;stroke:#000;stroke-miterlimit:10"/><line x1="44.18" y1="103.9" x2="87.14" y2="127.24" style="fill:none;stroke:#000;stroke-miterlimit:10"/></svg>