<svg xmlns="http://www.w3.org/2000/svg" width="208.44" height="246.4" viewBox="0 0 208.44 246.4"><title>computer</title><line x1="207.94" y1="50.43" x2="207.94" y2="175.35" style="fill:none;stroke:#000;stroke-miterlimit:10"/><line x1="121.34" y1="0.43" x2="207.94" y2="50.43" style="fill:none;stroke:#000;stroke-miterlimit:10"/><line x1="121.34" y1="100.43" x2="207.94" y2="50.43" style="fill:none;stroke:#000;stroke-miterlimit:10"/><line x1="121.94" y1="100.43" x2="121.94" y2="200.43" style="fill:none;stroke:#000;stroke-miterlimit:10"/><line x1="121.34" y1="200.43" x2="207.94" y2="150.43" style="fill:none;stroke:#000;stroke-miterlimit:10"/><line x1="34.13" y1="162.59" x2="105.69" y2="203.9" style="fill:none;stroke:#000;stroke-miterlimit:10"/><line x1="34.13" y1="50.43" x2="34.13" y2="150.43" style="fill:none;stroke:#000;stroke-miterlimit:10"/><line x1="34.74" y1="50.43" x2="121.34" y2="100.43" style="fill:none;stroke:#000;stroke-miterlimit:10"/><line x1="34.74" y1="50.43" x2="121.34" y2="0.43" style="fill:none;stroke:#000;stroke-miterlimit:10"/><line x1="40.3" y1="75.43" x2="106.68" y2="113.75" style="fill:none;stroke:#000;stroke-miterlimit:10"/><line x1="105.69" y1="112.93" x2="105.69" y2="176.93" style="fill:none;stroke:#000;stroke-miterlimit:10"/><line x1="40.3" y1="138.61" x2="106.68" y2="176.93" style="fill:none;stroke:#000;stroke-miterlimit:10"/><line x1="40.69" y1="75.43" x2="40.69" y2="139.43" style="fill:none;stroke:#000;stroke-miterlimit:10"/><line x1="87.61" y1="246.1" x2="121.34" y2="200.43" style="fill:none;stroke:#000;stroke-miterlimit:10"/><line x1="0.4" y1="196.1" x2="34.13" y2="150.43" style="fill:none;stroke:#000;stroke-miterlimit:10"/><line x1="1.43" y1="195.56" x2="88.04" y2="245.56" style="fill:none;stroke:#000;stroke-miterlimit:10"/><line x1="86.34" y1="245.56" x2="207.94" y2="175.35" style="fill:none;stroke:#000;stroke-miterlimit:10"/><line x1="34.74" y1="148.27" x2="121.34" y2="198.27" style="fill:none;stroke:#000;stroke-miterlimit:10"/><line x1="85.98" y1="230.37" x2="105.88" y2="203.43" style="fill:none;stroke:#000;stroke-miterlimit:10"/><line x1="14.79" y1="189.8" x2="86.35" y2="231.11" style="fill:none;stroke:#000;stroke-miterlimit:10"/><line x1="14.23" y1="190.41" x2="34.13" y2="163.46" style="fill:none;stroke:#000;stroke-miterlimit:10"/></svg>