<svg xmlns="http://www.w3.org/2000/svg" width="174.81" height="300.87" viewBox="0 0 174.81 300.87"><title>openbox</title><line x1="174.31" y1="150.43" x2="174.31" y2="250.43" style="fill:none;stroke:#000;stroke-miterlimit:10"/><line x1="87.71" y1="100.43" x2="174.31" y2="150.43" style="fill:none;stroke:#000;stroke-miterlimit:10"/><line x1="87.71" y1="200.43" x2="174.31" y2="150.43" style="fill:none;stroke:#000;stroke-miterlimit:10"/><line x1="88.31" y1="200.43" x2="88.31" y2="300.43" style="fill:none;stroke:#000;stroke-miterlimit:10"/><line x1="87.71" y1="300.43" x2="174.31" y2="250.43" style="fill:none;stroke:#000;stroke-miterlimit:10"/><line x1="1.1" y1="250.43" x2="87.71" y2="300.43" style="fill:none;stroke:#000;stroke-miterlimit:10"/><line x1="0.5" y1="150.43" x2="0.5" y2="250.43" style="fill:none;stroke:#000;stroke-miterlimit:10"/><line x1="1.1" y1="150.43" x2="87.71" y2="200.43" style="fill:none;stroke:#000;stroke-miterlimit:10"/><line x1="1.1" y1="150.43" x2="87.71" y2="100.43" style="fill:none;stroke:#000;stroke-miterlimit:10"/><line x1="174.31" y1="50.43" x2="174.31" y2="150.43" style="fill:none;stroke:#000;stroke-miterlimit:10"/><line x1="88.31" y1="0.43" x2="88.31" y2="100.43" style="fill:none;stroke:#000;stroke-miterlimit:10"/><line x1="87.71" y1="0.43" x2="174.31" y2="50.43" style="fill:none;stroke:#000;stroke-miterlimit:10"/><line x1="17.15" y1="141.17" x2="9.92" y2="155.52" style="fill:none;stroke:#000;stroke-miterlimit:10"/><line x1="33.55" y1="132.36" x2="19.19" y2="160.88" style="fill:none;stroke:#000;stroke-miterlimit:10"/><line x1="50.32" y1="123.28" x2="28.91" y2="165.77" style="fill:none;stroke:#000;stroke-miterlimit:10"/><line x1="73.86" y1="108.42" x2="41.73" y2="172.23" style="fill:none;stroke:#000;stroke-miterlimit:10"/><line x1="137.7" y1="127.3" x2="105.57" y2="191.1" style="fill:none;stroke:#000;stroke-miterlimit:10"/><line x1="125.95" y1="122.51" x2="87.23" y2="199.39" style="fill:none;stroke:#000;stroke-miterlimit:10"/><line x1="111.79" y1="114.34" x2="72.24" y2="192.85" style="fill:none;stroke:#000;stroke-miterlimit:10"/><line x1="99.16" y1="107.04" x2="59.64" y2="185.5" style="fill:none;stroke:#000;stroke-miterlimit:10"/><line x1="92.01" y1="102.92" x2="52.7" y2="178.17" style="fill:none;stroke:#000;stroke-miterlimit:10"/><line x1="146.53" y1="134.4" x2="123.15" y2="180.82" style="fill:none;stroke:#000;stroke-miterlimit:10"/><line x1="157.71" y1="137.64" x2="141.65" y2="169.55" style="fill:none;stroke:#000;stroke-miterlimit:10"/></svg>